<svg width="23" height="23" xmlns="http://www.w3.org/2000/svg"
     xml:space="preserve" overflow="hidden"><defs><clipPath id="clip0"><rect x="384" y="104" width="23" height="23"/></clipPath></defs>
    <g clip-path="url(#clip0)" transform="translate(-384 -104)"><path d="M384 104 427.7 104 427.7 105.769 384 105.769ZM384 107.538 427.7 107.538 427.7 109.308 384 109.308ZM384 111.077 427.7 111.077 427.7 112.846 384 112.846ZM384 114.615 427.7 114.615 427.7 116.385 384 116.385ZM384 118.154 427.7 118.154 427.7 119.923 384 119.923ZM384 121.692 427.7 121.692 427.7 123.462 384 123.462ZM384 125.231 427.7 125.231 427.7 127 384 127Z" fill="#BD3D44" fill-rule="evenodd"/>
        <path d="M384 105.769 427.7 105.769 427.7 107.538 384 107.538ZM384 109.308 427.7 109.308 427.7 111.077 384 111.077ZM384 112.846 427.7 112.846 427.7 114.615 384 114.615ZM384 116.385 427.7 116.385 427.7 118.154 384 118.154ZM384 119.923 427.7 119.923 427.7 121.692 384 121.692ZM384 123.462 427.7 123.462 427.7 125.231 384 125.231Z"
              fill="#FFFFFF" fill-rule="evenodd"/>
        <path d="M384 104 401.48 104 401.48 116.385 384 116.385Z" fill="#192F5D" fill-rule="evenodd"/>
        <path d="M385.457 104.53 385.616 105.02 386.13 105.02 385.714 105.322 385.873 105.812 385.457 105.509 385.04 105.812 385.199 105.322 384.783 105.02 385.298 105.02ZM388.37 104.53 388.529 105.02 389.044 105.02 388.627 105.322 388.786 105.812 388.37 105.509 387.954 105.812 388.113 105.322 387.696 105.02 388.211 105.02ZM391.283 104.53 391.443 105.02 391.957 105.02 391.541 105.322 391.7 105.812 391.283 105.509 390.867 105.812 391.026 105.322 390.61 105.02 391.125 105.02ZM394.197 104.53 394.356 105.02 394.87 105.02 394.454 105.322 394.613 105.812 394.197 105.509 393.78 105.812 393.939 105.322 393.523 105.02 394.038 105.02ZM397.11 104.53 397.269 105.02 397.784 105.02 397.367 105.322 397.527 105.812 397.11 105.509 396.694 105.812 396.853 105.322 396.436 105.02 396.951 105.02ZM400.024 104.53 400.183 105.02 400.697 105.02 400.281 105.322 400.44 105.812 400.024 105.509 399.607 105.812 399.766 105.322 399.35 105.02 399.865 105.02ZM386.913 105.769 387.072 106.258 387.587 106.258 387.171 106.561 387.33 107.05 386.913 106.747 386.497 107.05 386.656 106.561 386.24 106.258 386.754 106.258ZM389.827 105.769 389.986 106.258 390.5 106.258 390.084 106.561 390.243 107.05 389.827 106.747 389.41 107.05 389.569 106.561 389.153 106.258 389.668 106.258ZM392.74 105.769 392.899 106.258 393.414 106.258 392.997 106.561 393.157 107.05 392.74 106.747 392.324 107.05 392.483 106.561 392.066 106.258 392.581 106.258ZM395.654 105.769 395.813 106.258 396.327 106.258 395.911 106.561 396.07 107.05 395.654 106.747 395.237 107.05 395.396 106.561 394.98 106.258 395.495 106.258ZM398.567 105.769 398.726 106.258 399.24 106.258 398.824 106.561 398.983 107.05 398.567 106.747 398.15 107.05 398.309 106.561 397.893 106.258 398.408 106.258ZM385.457 107.007 385.616 107.497 386.13 107.497 385.714 107.799 385.873 108.288 385.457 107.986 385.04 108.288 385.199 107.799 384.783 107.497 385.298 107.497ZM388.37 107.007 388.529 107.497 389.044 107.497 388.627 107.799 388.786 108.288 388.37 107.986 387.954 108.288 388.113 107.799 387.696 107.497 388.211 107.497ZM391.283 107.007 391.443 107.497 391.957 107.497 391.541 107.799 391.7 108.288 391.283 107.986 390.867 108.288 391.026 107.799 390.61 107.497 391.125 107.497ZM394.197 107.007 394.356 107.497 394.87 107.497 394.454 107.799 394.613 108.288 394.197 107.986 393.78 108.288 393.939 107.799 393.523 107.497 394.038 107.497ZM397.11 107.007 397.269 107.497 397.784 107.497 397.367 107.799 397.527 108.288 397.11 107.986 396.694 108.288 396.853 107.799 396.436 107.497 396.951 107.497ZM400.024 107.007 400.183 107.497 400.697 107.497 400.281 107.799 400.44 108.288 400.024 107.986 399.607 108.288 399.766 107.799 399.35 107.497 399.865 107.497ZM386.913 108.245 387.072 108.735 387.587 108.735 387.171 109.038 387.33 109.527 386.913 109.224 386.497 109.527 386.656 109.038 386.24 108.735 386.754 108.735ZM389.827 108.245 389.986 108.735 390.5 108.735 390.084 109.038 390.243 109.527 389.827 109.224 389.41 109.527 389.569 109.038 389.153 108.735 389.668 108.735ZM392.74 108.245 392.899 108.735 393.414 108.735 392.997 109.038 393.157 109.527 392.74 109.224 392.324 109.527 392.483 109.038 392.066 108.735 392.581 108.735ZM395.654 108.245 395.813 108.735 396.327 108.735 395.911 109.038 396.07 109.527 395.654 109.224 395.237 109.527 395.396 109.038 394.98 108.735 395.495 108.735ZM398.567 108.245 398.726 108.735 399.24 108.735 398.824 109.038 398.983 109.527 398.567 109.224 398.15 109.527 398.309 109.038 397.893 108.735 398.408 108.735ZM385.457 109.484 385.616 109.974 386.13 109.974 385.714 110.276 385.873 110.765 385.457 110.463 385.04 110.765 385.199 110.276 384.783 109.974 385.298 109.974ZM388.37 109.484 388.529 109.974 389.044 109.974 388.627 110.276 388.786 110.765 388.37 110.463 387.954 110.765 388.113 110.276 387.696 109.974 388.211 109.974ZM391.283 109.484 391.443 109.974 391.957 109.974 391.541 110.276 391.7 110.765 391.283 110.463 390.867 110.765 391.026 110.276 390.61 109.974 391.125 109.974ZM394.197 109.484 394.356 109.974 394.87 109.974 394.454 110.276 394.613 110.765 394.197 110.463 393.78 110.765 393.939 110.276 393.523 109.974 394.038 109.974ZM397.11 109.484 397.269 109.974 397.784 109.974 397.367 110.276 397.527 110.765 397.11 110.463 396.694 110.765 396.853 110.276 396.436 109.974 396.951 109.974ZM400.024 109.484 400.183 109.974 400.697 109.974 400.281 110.276 400.44 110.765 400.024 110.463 399.607 110.765 399.766 110.276 399.35 109.974 399.865 109.974ZM386.913 110.722 387.072 111.212 387.587 111.212 387.171 111.515 387.33 112.004 386.913 111.701 386.497 112.004 386.656 111.515 386.24 111.212 386.754 111.212ZM389.827 110.722 389.986 111.212 390.5 111.212 390.084 111.515 390.243 112.004 389.827 111.701 389.41 112.004 389.569 111.515 389.153 111.212 389.668 111.212ZM392.74 110.722 392.899 111.212 393.414 111.212 392.997 111.515 393.157 112.004 392.74 111.701 392.324 112.004 392.483 111.515 392.066 111.212 392.581 111.212ZM395.654 110.722 395.813 111.212 396.327 111.212 395.911 111.515 396.07 112.004 395.654 111.701 395.237 112.004 395.396 111.515 394.98 111.212 395.495 111.212ZM398.567 110.722 398.726 111.212 399.24 111.212 398.824 111.515 398.983 112.004 398.567 111.701 398.15 112.004 398.309 111.515 397.893 111.212 398.408 111.212Z"
              fill="#FFFFFF" fill-rule="evenodd"/>
        <path d="M385.457 111.961 385.616 112.45 386.13 112.45 385.714 112.753 385.873 113.242 385.457 112.94 385.04 113.242 385.199 112.753 384.783 112.45 385.298 112.45ZM388.37 111.961 388.529 112.45 389.044 112.45 388.627 112.753 388.786 113.242 388.37 112.94 387.954 113.242 388.113 112.753 387.696 112.45 388.211 112.45ZM391.283 111.961 391.443 112.45 391.957 112.45 391.541 112.753 391.7 113.242 391.283 112.94 390.867 113.242 391.026 112.753 390.61 112.45 391.125 112.45ZM394.197 111.961 394.356 112.45 394.87 112.45 394.454 112.753 394.613 113.242 394.197 112.94 393.78 113.242 393.939 112.753 393.523 112.45 394.038 112.45ZM397.11 111.961 397.269 112.45 397.784 112.45 397.367 112.753 397.527 113.242 397.11 112.94 396.694 113.242 396.853 112.753 396.436 112.45 396.951 112.45ZM400.024 111.961 400.183 112.45 400.697 112.45 400.281 112.753 400.44 113.242 400.024 112.94 399.607 113.242 399.766 112.753 399.35 112.45 399.865 112.45ZM386.913 113.199 387.072 113.689 387.587 113.689 387.171 113.991 387.33 114.481 386.913 114.178 386.497 114.481 386.656 113.991 386.24 113.689 386.754 113.689ZM389.827 113.199 389.986 113.689 390.5 113.689 390.084 113.991 390.243 114.481 389.827 114.178 389.41 114.481 389.569 113.991 389.153 113.689 389.668 113.689ZM392.74 113.199 392.899 113.689 393.414 113.689 392.997 113.991 393.157 114.481 392.74 114.178 392.324 114.481 392.483 113.991 392.066 113.689 392.581 113.689ZM395.654 113.199 395.813 113.689 396.327 113.689 395.911 113.991 396.07 114.481 395.654 114.178 395.237 114.481 395.396 113.991 394.98 113.689 395.495 113.689ZM398.567 113.199 398.726 113.689 399.24 113.689 398.824 113.991 398.983 114.481 398.567 114.178 398.15 114.481 398.309 113.991 397.893 113.689 398.408 113.689Z"
              fill="#FFFFFF" fill-rule="evenodd"/>
        <path d="M385.457 114.438 385.616 114.927 386.13 114.927 385.714 115.23 385.873 115.719 385.457 115.417 385.04 115.719 385.199 115.23 384.783 114.927 385.298 114.927ZM388.37 114.438 388.529 114.927 389.044 114.927 388.627 115.23 388.786 115.719 388.37 115.417 387.954 115.719 388.113 115.23 387.696 114.927 388.211 114.927ZM391.283 114.438 391.443 114.927 391.957 114.927 391.541 115.23 391.7 115.719 391.283 115.417 390.867 115.719 391.026 115.23 390.61 114.927 391.125 114.927ZM394.197 114.438 394.356 114.927 394.87 114.927 394.454 115.23 394.613 115.719 394.197 115.417 393.78 115.719 393.939 115.23 393.523 114.927 394.038 114.927ZM397.11 114.438 397.269 114.927 397.784 114.927 397.367 115.23 397.527 115.719 397.11 115.417 396.694 115.719 396.853 115.23 396.436 114.927 396.951 114.927ZM400.024 114.438 400.183 114.927 400.697 114.927 400.281 115.23 400.44 115.719 400.024 115.417 399.607 115.719 399.766 115.23 399.35 114.927 399.865 114.927Z"
              fill="#FFFFFF" fill-rule="evenodd"/></g></svg>