<svg width="23" height="23" xmlns="http://www.w3.org/2000/svg"
     xml:space="preserve" overflow="hidden"><defs><clipPath id="clip0"><rect x="384" y="104" width="23" height="23"/></clipPath></defs>
    <g clip-path="url(#clip0)" transform="translate(-384 -104)"><path d="M411.43 126.98 378.629 126.98 378.629 103.98 411.43 103.98Z" fill="#FFFFFF" fill-rule="evenodd"/>
        <path d="M395.315 115.501C395.315 118.292 393.052 120.555 390.26 120.555 387.469 120.555 385.206 118.292 385.206 115.501 385.206 112.71 387.469 110.447 390.26 110.447 393.052 110.447 395.315 112.71 395.315 115.501Z"
              fill="#FFFFFF" fill-rule="evenodd"/>
        <path d="M401.655 115.794C401.664 119.436 398.75 122.397 395.146 122.406 391.543 122.416 388.613 119.471 388.604 115.829 388.604 115.817 388.604 115.806 388.604 115.794 388.594 112.152 391.508 109.192 395.112 109.182 398.716 109.173 401.645 112.118 401.655 115.76 401.655 115.771 401.655 115.783 401.655 115.794Z"
              fill="#C70000" fill-rule="evenodd"/>
        <path d="M381.78 109.68 385.538 105.333 386.429 106.103 382.671 110.45ZM383.011 110.744 386.769 106.397 387.659 107.167 383.901 111.514Z"
              fill-rule="evenodd"/>
        <path d="M381.78 109.68 385.538 105.333 386.429 106.103 382.671 110.45Z" fill-rule="evenodd"/>
        <path d="M381.78 109.68 385.538 105.333 386.429 106.103 382.671 110.45ZM384.268 111.831 388.026 107.484 388.917 108.253 385.158 112.601Z"
              fill-rule="evenodd"/>
        <path d="M381.78 109.68 385.538 105.333 386.429 106.103 382.671 110.45Z" fill-rule="evenodd"/>
        <path d="M381.78 109.68 385.538 105.333 386.429 106.103 382.671 110.45ZM404.638 105.331 408.366 109.704 407.471 110.468 403.742 106.095ZM402.135 107.465 405.864 111.838 404.968 112.601 401.24 108.229Z"
              fill-rule="evenodd"/>
        <path d="M402.757 109.983 406.288 106.937 406.946 107.698 403.173 111.091 402.757 109.983Z" fill="#FFFFFF"
              fill-rule="evenodd"/>
        <path d="M407.1 120.712 403.488 125.016 402.602 124.28 406.214 119.975ZM403.4 106.387 407.128 110.76 406.233 111.523 402.504 107.151ZM408.324 121.73 404.712 126.034 403.826 125.298 407.438 120.993ZM405.85 119.671 402.237 123.976 401.351 123.239 404.964 118.935Z"
              fill-rule="evenodd"/>
        <path d="M388.699 114.632C388.905 116.293 389.206 118.144 391.762 118.336 392.721 118.394 394.584 118.108 395.224 115.498 396.064 112.99 398.592 112.269 400.313 113.628 401.289 114.265 401.558 115.275 401.628 116.034 401.55 118.471 400.152 120.58 398.357 121.521 396.294 122.747 393.435 122.773 390.931 120.915 389.803 119.856 388.226 117.904 388.699 114.632Z"
              fill="#3D5897" fill-rule="evenodd"/>
        <path d="M403.582 120.648 407.119 123.687 406.463 124.451 402.548 121.223 403.582 120.648Z" fill="#FFFFFF"
              fill-rule="evenodd"/>
        <path d="M383.915 120.046 387.644 124.418 386.748 125.182 383.02 120.81Z" fill-rule="evenodd"/>
        <path d="M383.273 123.642 386.804 120.596 387.461 121.357 383.688 124.75 383.273 123.642Z" fill="#FFFFFF"
              fill-rule="evenodd"/>
        <path d="M385.153 118.99 388.882 123.363 387.986 124.126 384.258 119.754ZM382.651 121.124 386.379 125.497 385.484 126.26 381.755 121.888Z"
              fill-rule="evenodd"/></g></svg>