<svg width="23" height="23" xmlns="http://www.w3.org/2000/svg" xml:space="preserve" overflow="hidden"><defs><clipPath id="clip0"><rect x="384" y="104" width="23" height="23"/></clipPath></defs>
    <g clip-path="url(#clip0)" transform="translate(-384 -104)"><path d="M384 104 418.5 104 418.5 127 384 127Z" fill="#DE2910"/>
        <path d="M393.027 108.681 387.725 112.545 389.75 106.3 391.779 112.545 386.466 108.681Z" fill="#FFDE00"/>
        <path d="M394.633 105.547 396.645 106.4 394.514 106.892 395.951 105.242 395.757 107.422Z" fill="#FFDE00"/>
        <path d="M397.293 107.569 398.817 109.137 396.661 108.762 398.627 107.799 397.601 109.734Z" fill="#FFDE00"/>
        <path d="M397.757 110.901 398.51 112.956 396.694 111.734 398.882 111.656 397.156 113.006Z" fill="#FFDE00"/>
        <path d="M395.905 113.275 395.805 115.459 394.603 113.632 396.649 114.405 394.538 114.982Z" fill="#FFDE00"/></g></svg>